<svg width="512" height="512" viewBox="0 0 512 512" fill="none" xmlns="http://www.w3.org/2000/svg">
<rect width="512" height="512" rx="20" fill="#212121"/>
<g filter="url(#filter0_dd_926_4)">
<path d="M148.344 366.12C130.248 366.12 115.064 363.416 102.792 358.008C90.52 352.392 81.056 345.216 74.4 336.48C67.952 327.536 64.52 318.072 64.104 308.088C64.104 306.424 64.728 304.968 65.976 303.72C67.432 302.264 69.096 301.536 70.968 301.536H86.88C89.376 301.536 91.248 302.16 92.496 303.408C93.744 304.656 94.576 306.112 94.992 307.776C96.032 312.768 98.528 317.76 102.48 322.752C106.64 327.536 112.36 331.592 119.64 334.92C127.128 338.04 136.696 339.6 148.344 339.6C166.232 339.6 179.336 336.48 187.656 330.24C196.184 323.792 200.448 315.264 200.448 304.656C200.448 297.376 198.16 291.552 193.584 287.184C189.216 282.608 182.456 278.552 173.304 275.016C164.152 271.48 152.296 267.632 137.736 263.472C122.552 259.104 109.968 254.32 99.984 249.12C90 243.92 82.512 237.472 77.52 229.776C72.736 222.08 70.344 212.304 70.344 200.448C70.344 189.216 73.36 179.232 79.392 170.496C85.424 161.552 94.056 154.48 105.288 149.28C116.728 144.08 130.56 141.48 146.784 141.48C159.68 141.48 170.912 143.248 180.48 146.784C190.256 150.112 198.368 154.688 204.816 160.512C211.264 166.128 216.152 172.264 219.48 178.92C222.808 185.368 224.576 191.712 224.784 197.952C224.784 199.408 224.264 200.864 223.224 202.32C222.184 203.568 220.52 204.192 218.232 204.192H201.696C200.24 204.192 198.68 203.776 197.016 202.944C195.56 202.112 194.416 200.552 193.584 198.264C192.336 189.736 187.552 182.56 179.232 176.736C170.912 170.912 160.096 168 146.784 168C133.264 168 122.24 170.6 113.712 175.8C105.392 181 101.232 189.112 101.232 200.136C101.232 207.208 103.208 213.136 107.16 217.92C111.112 222.496 117.352 226.552 125.88 230.088C134.408 233.624 145.536 237.368 159.264 241.32C175.904 245.896 189.528 250.784 200.136 255.984C210.744 260.976 218.544 267.32 223.536 275.016C228.736 282.504 231.336 292.176 231.336 304.032C231.336 317.136 227.904 328.368 221.04 337.728C214.176 346.88 204.504 353.952 192.024 358.944C179.752 363.728 165.192 366.12 148.344 366.12ZM279.406 363C277.118 363 275.35 362.376 274.102 361.128C272.854 359.672 272.23 357.904 272.23 355.824V152.088C272.23 149.8 272.854 148.032 274.102 146.784C275.35 145.328 277.118 144.6 279.406 144.6H350.23C371.654 144.6 388.918 147.824 402.022 154.272C415.126 160.72 424.694 170.288 430.726 182.976C436.758 195.456 439.878 210.848 440.086 229.152C440.294 238.512 440.398 246.728 440.398 253.8C440.398 260.872 440.294 268.984 440.086 278.136C439.67 297.272 436.446 313.184 430.414 325.872C424.59 338.352 415.23 347.712 402.334 353.952C389.646 359.984 372.798 363 351.79 363H279.406ZM302.806 336.48H350.23C364.582 336.48 376.022 334.504 384.55 330.552C393.078 326.6 399.214 320.256 402.958 311.52C406.91 302.784 408.99 291.24 409.198 276.888C409.614 270.648 409.822 265.24 409.822 260.664C409.822 255.88 409.822 251.2 409.822 246.624C409.822 241.84 409.614 236.432 409.198 230.4C408.782 210.224 403.998 195.352 394.846 185.784C385.694 176.008 370.302 171.12 348.67 171.12H302.806V336.48Z" fill="#FF3D6F"/>
<path d="M102.792 358.008L102.584 358.463L102.59 358.466L102.792 358.008ZM74.4 336.48L73.9943 336.772L74.0023 336.783L74.4 336.48ZM64.104 308.088H63.604V308.098L63.6044 308.109L64.104 308.088ZM65.976 303.72L65.6224 303.366L65.976 303.72ZM94.992 307.776L95.4815 307.674L95.4795 307.664L95.4771 307.655L94.992 307.776ZM102.48 322.752L102.088 323.062L102.095 323.071L102.103 323.08L102.48 322.752ZM119.64 334.92L119.432 335.375L119.44 335.378L119.448 335.382L119.64 334.92ZM187.656 330.24L187.956 330.64L187.958 330.639L187.656 330.24ZM193.584 287.184L193.222 287.529L193.23 287.538L193.239 287.546L193.584 287.184ZM173.304 275.016L173.124 275.482L173.304 275.016ZM137.736 263.472L137.598 263.953L137.599 263.953L137.736 263.472ZM99.984 249.12L99.753 249.563L99.984 249.12ZM77.52 229.776L77.0953 230.04L77.1005 230.048L77.52 229.776ZM79.392 170.496L79.8035 170.78L79.8065 170.776L79.392 170.496ZM105.288 149.28L105.081 148.825L105.078 148.826L105.288 149.28ZM180.48 146.784L180.307 147.253L180.319 147.257L180.48 146.784ZM204.816 160.512L204.481 160.883L204.488 160.889L204.816 160.512ZM219.48 178.92L219.033 179.144L219.036 179.149L219.48 178.92ZM224.784 197.952H225.284V197.944L225.284 197.935L224.784 197.952ZM223.224 202.32L223.608 202.64L223.62 202.626L223.631 202.611L223.224 202.32ZM197.016 202.944L196.768 203.378L196.78 203.385L196.792 203.391L197.016 202.944ZM193.584 198.264L193.089 198.336L193.097 198.387L193.114 198.435L193.584 198.264ZM179.232 176.736L178.945 177.146L179.232 176.736ZM113.712 175.8L113.452 175.373L113.447 175.376L113.712 175.8ZM107.16 217.92L106.774 218.239L106.782 218.247L107.16 217.92ZM125.88 230.088L126.072 229.626L125.88 230.088ZM159.264 241.32L159.126 241.801L159.131 241.802L159.264 241.32ZM200.136 255.984L199.916 256.433L199.923 256.436L200.136 255.984ZM223.536 275.016L223.117 275.288L223.121 275.295L223.125 275.301L223.536 275.016ZM221.04 337.728L221.44 338.028L221.443 338.024L221.04 337.728ZM192.024 358.944L192.206 359.41L192.21 359.408L192.024 358.944ZM148.344 365.62C130.295 365.62 115.184 362.922 102.994 357.55L102.59 358.466C114.944 363.91 130.201 366.62 148.344 366.62V365.62ZM103 357.553C90.7859 351.964 81.3938 344.834 74.7977 336.177L74.0023 336.783C80.7182 345.598 90.2541 352.82 102.584 358.463L103 357.553ZM74.8056 336.188C68.4087 327.314 65.0151 317.943 64.6036 308.067L63.6044 308.109C64.0249 318.201 67.4953 327.758 73.9944 336.772L74.8056 336.188ZM64.604 308.088C64.604 306.565 65.169 305.234 66.3296 304.074L65.6224 303.366C64.287 304.702 63.604 306.283 63.604 308.088H64.604ZM66.3296 304.074C67.7021 302.701 69.2425 302.036 70.968 302.036V301.036C68.9495 301.036 67.1619 301.827 65.6224 303.366L66.3296 304.074ZM70.968 302.036H86.88V301.036H70.968V302.036ZM86.88 302.036C89.2989 302.036 91.0213 302.64 92.1424 303.762L92.8496 303.054C91.4747 301.68 89.4531 301.036 86.88 301.036V302.036ZM92.1424 303.762C93.3283 304.947 94.1136 306.324 94.5069 307.897L95.4771 307.655C95.0384 305.9 94.1597 304.365 92.8496 303.054L92.1424 303.762ZM94.5025 307.878C95.5618 312.963 98.0995 318.024 102.088 323.062L102.872 322.442C98.9565 317.496 96.5022 312.573 95.4815 307.674L94.5025 307.878ZM102.103 323.08C106.32 327.93 112.104 332.025 119.432 335.375L119.848 334.465C112.616 331.159 106.96 327.142 102.857 322.424L102.103 323.08ZM119.448 335.382C127.017 338.535 136.656 340.1 148.344 340.1V339.1C136.736 339.1 127.239 337.545 119.832 334.458L119.448 335.382ZM148.344 340.1C166.27 340.1 179.507 336.977 187.956 330.64L187.356 329.84C179.165 335.983 166.194 339.1 148.344 339.1V340.1ZM187.958 330.639C196.609 324.097 200.948 315.422 200.948 304.656H199.948C199.948 315.106 195.759 323.487 187.354 329.841L187.958 330.639ZM200.948 304.656C200.948 297.262 198.619 291.299 193.929 286.822L193.239 287.546C197.701 291.805 199.948 297.49 199.948 304.656H200.948ZM193.946 286.839C189.507 282.188 182.671 278.099 173.484 274.55L173.124 275.482C182.241 279.005 188.925 283.028 193.222 287.529L193.946 286.839ZM173.484 274.55C164.313 271.006 152.441 267.153 137.873 262.991L137.599 263.953C152.151 268.111 163.991 271.954 173.124 275.482L173.484 274.55ZM137.874 262.991C122.711 258.629 110.16 253.856 100.215 248.677L99.753 249.563C109.776 254.784 122.393 259.579 137.598 263.953L137.874 262.991ZM100.215 248.677C90.2903 243.507 82.8749 237.113 77.9395 229.504L77.1005 230.048C82.1491 237.831 89.7097 244.333 99.753 249.563L100.215 248.677ZM77.9446 229.512C73.2229 221.916 70.844 212.239 70.844 200.448H69.844C69.844 212.369 72.2491 222.244 77.0954 230.04L77.9446 229.512ZM70.844 200.448C70.844 189.311 73.8326 179.428 79.8034 170.78L78.9806 170.212C72.8874 179.036 69.844 189.121 69.844 200.448H70.844ZM79.8065 170.776C85.7804 161.918 94.3364 154.901 105.498 149.734L105.078 148.826C93.7756 154.059 85.0676 161.186 78.9775 170.216L79.8065 170.776ZM105.495 149.735C116.854 144.572 130.611 141.98 146.784 141.98V140.98C130.509 140.98 116.602 143.588 105.081 148.825L105.495 149.735ZM146.784 141.98C159.636 141.98 170.807 143.742 180.307 147.253L180.653 146.315C171.017 142.754 159.724 140.98 146.784 140.98V141.98ZM180.319 147.257C190.042 150.567 198.092 155.112 204.481 160.883L205.151 160.141C198.644 154.264 190.47 149.657 180.641 146.311L180.319 147.257ZM204.488 160.889C210.894 166.468 215.738 172.554 219.033 179.144L219.927 178.696C216.566 171.974 211.634 165.788 205.144 160.135L204.488 160.889ZM219.036 179.149C222.335 185.542 224.079 191.814 224.284 197.969L225.284 197.935C225.073 191.61 223.281 185.194 219.924 178.691L219.036 179.149ZM224.284 197.952C224.284 199.282 223.811 200.638 222.817 202.029L223.631 202.611C224.717 201.09 225.284 199.534 225.284 197.952H224.284ZM222.84 202C221.929 203.093 220.435 203.692 218.232 203.692V204.692C220.605 204.692 222.439 204.043 223.608 202.64L222.84 202ZM218.232 203.692H201.696V204.692H218.232V203.692ZM201.696 203.692C200.336 203.692 198.853 203.303 197.24 202.497L196.792 203.391C198.507 204.249 200.144 204.692 201.696 204.692V203.692ZM197.264 202.51C195.949 201.758 194.863 200.319 194.054 198.093L193.114 198.435C193.969 200.785 195.171 202.466 196.768 203.378L197.264 202.51ZM194.079 198.192C192.807 189.503 187.93 182.214 179.519 176.326L178.945 177.146C187.174 182.906 191.865 189.969 193.089 198.336L194.079 198.192ZM179.519 176.326C171.092 170.428 160.167 167.5 146.784 167.5V168.5C160.025 168.5 170.732 171.396 178.945 177.146L179.519 176.326ZM146.784 167.5C133.204 167.5 122.081 170.111 113.452 175.373L113.972 176.227C122.399 171.089 133.324 168.5 146.784 168.5V167.5ZM113.447 175.376C104.961 180.68 100.732 188.965 100.732 200.136H101.732C101.732 189.259 105.823 181.32 113.977 176.224L113.447 175.376ZM100.732 200.136C100.732 207.307 102.738 213.352 106.775 218.238L107.545 217.602C103.678 212.92 101.732 207.109 101.732 200.136H100.732ZM106.782 218.247C110.804 222.905 117.123 226.998 125.688 230.55L126.072 229.626C117.581 226.106 111.42 222.087 107.538 217.593L106.782 218.247ZM125.688 230.55C134.241 234.096 145.388 237.846 159.126 241.8L159.402 240.84C145.684 236.89 134.575 233.152 126.072 229.626L125.688 230.55ZM159.131 241.802C175.754 246.373 189.346 251.251 199.916 256.433L200.356 255.535C189.71 250.317 176.054 245.419 159.397 240.838L159.131 241.802ZM199.923 256.436C210.47 261.4 218.188 267.689 223.117 275.288L223.955 274.744C218.9 266.951 211.018 260.552 200.349 255.532L199.923 256.436ZM223.125 275.301C228.252 282.684 230.836 292.248 230.836 304.032H231.836C231.836 292.104 229.22 282.324 223.947 274.731L223.125 275.301ZM230.836 304.032C230.836 317.044 227.43 328.169 220.637 337.432L221.443 338.024C228.378 328.567 231.836 317.228 231.836 304.032H230.836ZM220.64 337.428C213.84 346.495 204.248 353.516 191.838 358.48L192.21 359.408C204.76 354.388 214.512 347.265 221.44 338.028L220.64 337.428ZM191.842 358.478C179.642 363.234 165.146 365.62 148.344 365.62V366.62C165.238 366.62 179.862 364.222 192.206 359.41L191.842 358.478ZM274.102 361.128L273.722 361.453L273.735 361.468L273.748 361.482L274.102 361.128ZM274.102 146.784L274.455 147.138L274.469 147.124L274.482 147.109L274.102 146.784ZM402.022 154.272L401.801 154.721L402.022 154.272ZM430.726 182.976L430.274 183.191L430.276 183.194L430.726 182.976ZM440.086 229.152L439.586 229.158L439.586 229.163L440.086 229.152ZM440.086 278.136L439.586 278.125V278.125L440.086 278.136ZM430.414 325.872L429.962 325.657L429.961 325.661L430.414 325.872ZM402.334 353.952L402.549 354.404L402.552 354.402L402.334 353.952ZM302.806 336.48H302.306V336.98H302.806V336.48ZM402.958 311.52L402.502 311.314L402.498 311.323L402.958 311.52ZM409.198 276.888L408.699 276.855L408.698 276.868L408.698 276.881L409.198 276.888ZM409.198 230.4L408.698 230.41L408.698 230.422L408.699 230.434L409.198 230.4ZM394.846 185.784L394.481 186.126L394.485 186.13L394.846 185.784ZM302.806 171.12V170.62H302.306V171.12H302.806ZM279.406 362.5C277.21 362.5 275.584 361.903 274.455 360.774L273.748 361.482C275.116 362.849 277.026 363.5 279.406 363.5V362.5ZM274.482 360.803C273.318 359.445 272.73 357.796 272.73 355.824H271.73C271.73 358.012 272.39 359.899 273.722 361.453L274.482 360.803ZM272.73 355.824V152.088H271.73V355.824H272.73ZM272.73 152.088C272.73 149.892 273.327 148.266 274.455 147.138L273.748 146.43C272.381 147.798 271.73 149.708 271.73 152.088H272.73ZM274.482 147.109C275.616 145.786 277.233 145.1 279.406 145.1V144.1C277.003 144.1 275.084 144.87 273.722 146.459L274.482 147.109ZM279.406 145.1H350.23V144.1H279.406V145.1ZM350.23 145.1C371.61 145.1 388.79 148.318 401.801 154.721L402.243 153.823C389.046 147.33 371.698 144.1 350.23 144.1V145.1ZM401.801 154.721C414.808 161.121 424.293 170.609 430.274 183.191L431.178 182.761C425.095 169.967 415.443 160.319 402.243 153.823L401.801 154.721ZM430.276 183.194C436.267 195.59 439.379 210.905 439.586 229.158L440.586 229.146C440.377 210.791 437.249 195.322 431.176 182.758L430.276 183.194ZM439.586 229.163C439.794 238.521 439.898 246.733 439.898 253.8H440.898C440.898 246.723 440.794 238.503 440.586 229.141L439.586 229.163ZM439.898 253.8C439.898 260.867 439.794 268.975 439.586 278.125L440.586 278.147C440.794 268.993 440.898 260.877 440.898 253.8H439.898ZM439.586 278.125C439.171 297.215 435.955 313.052 429.962 325.657L430.866 326.087C436.937 313.316 440.169 297.329 440.586 278.147L439.586 278.125ZM429.961 325.661C424.188 338.032 414.913 347.31 402.116 353.502L402.552 354.402C415.547 348.114 424.992 338.672 430.867 326.083L429.961 325.661ZM402.119 353.5C389.523 359.489 372.757 362.5 351.79 362.5V363.5C372.839 363.5 389.769 360.479 402.549 354.404L402.119 353.5ZM351.79 362.5H279.406V363.5H351.79V362.5ZM302.806 336.98H350.23V335.98H302.806V336.98ZM350.23 336.98C364.62 336.98 376.141 335 384.76 331.006L384.34 330.098C375.903 334.008 364.544 335.98 350.23 335.98V336.98ZM384.76 331.006C393.401 327.001 399.626 320.565 403.418 311.717L402.498 311.323C398.802 319.947 392.754 326.199 384.34 330.098L384.76 331.006ZM403.414 311.726C407.404 302.904 409.489 291.285 409.698 276.895L408.698 276.881C408.491 291.195 406.416 302.664 402.502 311.314L403.414 311.726ZM409.697 276.921C410.113 270.674 410.322 265.254 410.322 260.664H409.322C409.322 265.226 409.115 270.622 408.699 276.855L409.697 276.921ZM410.322 260.664C410.322 260.655 410.322 260.645 410.322 260.636C410.322 260.627 410.322 260.617 410.322 260.608C410.322 260.599 410.322 260.589 410.322 260.58C410.322 260.571 410.322 260.561 410.322 260.552C410.322 260.543 410.322 260.533 410.322 260.524C410.322 260.515 410.322 260.505 410.322 260.496C410.322 260.487 410.322 260.477 410.322 260.468C410.322 260.458 410.322 260.449 410.322 260.44C410.322 260.43 410.322 260.421 410.322 260.412C410.322 260.402 410.322 260.393 410.322 260.384C410.322 260.374 410.322 260.365 410.322 260.356C410.322 260.346 410.322 260.337 410.322 260.328C410.322 260.318 410.322 260.309 410.322 260.3C410.322 260.29 410.322 260.281 410.322 260.272C410.322 260.262 410.322 260.253 410.322 260.244C410.322 260.234 410.322 260.225 410.322 260.216C410.322 260.206 410.322 260.197 410.322 260.188C410.322 260.178 410.322 260.169 410.322 260.16C410.322 260.15 410.322 260.141 410.322 260.132C410.322 260.122 410.322 260.113 410.322 260.104C410.322 260.095 410.322 260.085 410.322 260.076C410.322 260.067 410.322 260.057 410.322 260.048C410.322 260.039 410.322 260.029 410.322 260.02C410.322 260.011 410.322 260.001 410.322 259.992C410.322 259.983 410.322 259.973 410.322 259.964C410.322 259.955 410.322 259.945 410.322 259.936C410.322 259.927 410.322 259.917 410.322 259.908C410.322 259.899 410.322 259.889 410.322 259.88C410.322 259.871 410.322 259.861 410.322 259.852C410.322 259.843 410.322 259.833 410.322 259.824C410.322 259.815 410.322 259.805 410.322 259.796C410.322 259.787 410.322 259.778 410.322 259.768C410.322 259.759 410.322 259.75 410.322 259.74C410.322 259.731 410.322 259.722 410.322 259.712C410.322 259.703 410.322 259.694 410.322 259.684C410.322 259.675 410.322 259.666 410.322 259.656C410.322 259.647 410.322 259.638 410.322 259.628C410.322 259.619 410.322 259.61 410.322 259.601C410.322 259.591 410.322 259.582 410.322 259.573C410.322 259.563 410.322 259.554 410.322 259.545C410.322 259.535 410.322 259.526 410.322 259.517C410.322 259.507 410.322 259.498 410.322 259.489C410.322 259.479 410.322 259.47 410.322 259.461C410.322 259.452 410.322 259.442 410.322 259.433C410.322 259.424 410.322 259.414 410.322 259.405C410.322 259.396 410.322 259.386 410.322 259.377C410.322 259.368 410.322 259.358 410.322 259.349C410.322 259.34 410.322 259.331 410.322 259.321C410.322 259.312 410.322 259.303 410.322 259.293C410.322 259.284 410.322 259.275 410.322 259.265C410.322 259.256 410.322 259.247 410.322 259.238C410.322 259.228 410.322 259.219 410.322 259.21C410.322 259.2 410.322 259.191 410.322 259.182C410.322 259.172 410.322 259.163 410.322 259.154C410.322 259.144 410.322 259.135 410.322 259.126C410.322 259.117 410.322 259.107 410.322 259.098C410.322 259.089 410.322 259.079 410.322 259.07C410.322 259.061 410.322 259.051 410.322 259.042C410.322 259.033 410.322 259.024 410.322 259.014C410.322 259.005 410.322 258.996 410.322 258.986C410.322 258.977 410.322 258.968 410.322 258.959C410.322 258.949 410.322 258.94 410.322 258.931C410.322 258.921 410.322 258.912 410.322 258.903C410.322 258.893 410.322 258.884 410.322 258.875C410.322 258.866 410.322 258.856 410.322 258.847C410.322 258.838 410.322 258.828 410.322 258.819C410.322 258.81 410.322 258.801 410.322 258.791C410.322 258.782 410.322 258.773 410.322 258.763C410.322 258.754 410.322 258.745 410.322 258.736C410.322 258.726 410.322 258.717 410.322 258.708C410.322 258.698 410.322 258.689 410.322 258.68C410.322 258.67 410.322 258.661 410.322 258.652C410.322 258.643 410.322 258.633 410.322 258.624C410.322 258.615 410.322 258.605 410.322 258.596C410.322 258.587 410.322 258.578 410.322 258.568C410.322 258.559 410.322 258.55 410.322 258.54C410.322 258.531 410.322 258.522 410.322 258.513C410.322 258.503 410.322 258.494 410.322 258.485C410.322 258.476 410.322 258.466 410.322 258.457C410.322 258.448 410.322 258.438 410.322 258.429C410.322 258.42 410.322 258.411 410.322 258.401C410.322 258.392 410.322 258.383 410.322 258.373C410.322 258.364 410.322 258.355 410.322 258.346C410.322 258.336 410.322 258.327 410.322 258.318C410.322 258.308 410.322 258.299 410.322 258.29C410.322 258.281 410.322 258.271 410.322 258.262C410.322 258.253 410.322 258.244 410.322 258.234C410.322 258.225 410.322 258.216 410.322 258.206C410.322 258.197 410.322 258.188 410.322 258.179C410.322 258.169 410.322 258.16 410.322 258.151C410.322 258.142 410.322 258.132 410.322 258.123C410.322 258.114 410.322 258.104 410.322 258.095C410.322 258.086 410.322 258.077 410.322 258.067C410.322 258.058 410.322 258.049 410.322 258.04C410.322 258.03 410.322 258.021 410.322 258.012C410.322 258.003 410.322 257.993 410.322 257.984C410.322 257.975 410.322 257.965 410.322 257.956C410.322 257.947 410.322 257.938 410.322 257.928C410.322 257.919 410.322 257.91 410.322 257.901C410.322 257.891 410.322 257.882 410.322 257.873C410.322 257.864 410.322 257.854 410.322 257.845C410.322 257.836 410.322 257.826 410.322 257.817C410.322 257.808 410.322 257.799 410.322 257.789C410.322 257.78 410.322 257.771 410.322 257.762C410.322 257.752 410.322 257.743 410.322 257.734C410.322 257.725 410.322 257.715 410.322 257.706C410.322 257.697 410.322 257.688 410.322 257.678C410.322 257.669 410.322 257.66 410.322 257.65C410.322 257.641 410.322 257.632 410.322 257.623C410.322 257.613 410.322 257.604 410.322 257.595C410.322 257.586 410.322 257.576 410.322 257.567C410.322 257.558 410.322 257.549 410.322 257.539C410.322 257.53 410.322 257.521 410.322 257.512C410.322 257.502 410.322 257.493 410.322 257.484C410.322 257.475 410.322 257.465 410.322 257.456C410.322 257.447 410.322 257.438 410.322 257.428C410.322 257.419 410.322 257.41 410.322 257.401C410.322 257.391 410.322 257.382 410.322 257.373C410.322 257.364 410.322 257.354 410.322 257.345C410.322 257.336 410.322 257.327 410.322 257.317C410.322 257.308 410.322 257.299 410.322 257.29C410.322 257.28 410.322 257.271 410.322 257.262C410.322 257.253 410.322 257.243 410.322 257.234C410.322 257.225 410.322 257.216 410.322 257.206C410.322 257.197 410.322 257.188 410.322 257.179C410.322 257.169 410.322 257.16 410.322 257.151C410.322 257.142 410.322 257.132 410.322 257.123C410.322 257.114 410.322 257.105 410.322 257.095C410.322 257.086 410.322 257.077 410.322 257.068C410.322 257.059 410.322 257.049 410.322 257.04C410.322 257.031 410.322 257.022 410.322 257.012C410.322 257.003 410.322 256.994 410.322 256.985C410.322 256.975 410.322 256.966 410.322 256.957C410.322 256.948 410.322 256.938 410.322 256.929C410.322 256.92 410.322 256.911 410.322 256.901C410.322 256.892 410.322 256.883 410.322 256.874C410.322 256.865 410.322 256.855 410.322 256.846C410.322 256.837 410.322 256.828 410.322 256.818C410.322 256.809 410.322 256.8 410.322 256.791C410.322 256.781 410.322 256.772 410.322 256.763C410.322 256.754 410.322 256.744 410.322 256.735C410.322 256.726 410.322 256.717 410.322 256.708C410.322 256.698 410.322 256.689 410.322 256.68C410.322 256.671 410.322 256.661 410.322 256.652C410.322 256.643 410.322 256.634 410.322 256.624C410.322 256.615 410.322 256.606 410.322 256.597C410.322 256.588 410.322 256.578 410.322 256.569C410.322 256.56 410.322 256.551 410.322 256.541C410.322 256.532 410.322 256.523 410.322 256.514C410.322 256.505 410.322 256.495 410.322 256.486C410.322 256.477 410.322 256.468 410.322 256.458C410.322 256.449 410.322 256.44 410.322 256.431C410.322 256.422 410.322 256.412 410.322 256.403C410.322 256.394 410.322 256.385 410.322 256.375C410.322 256.366 410.322 256.357 410.322 256.348C410.322 256.339 410.322 256.329 410.322 256.32C410.322 256.311 410.322 256.302 410.322 256.292C410.322 256.283 410.322 256.274 410.322 256.265C410.322 256.256 410.322 256.246 410.322 256.237C410.322 256.228 410.322 256.219 410.322 256.209C410.322 256.2 410.322 256.191 410.322 256.182C410.322 256.173 410.322 256.163 410.322 256.154C410.322 256.145 410.322 256.136 410.322 256.127C410.322 256.117 410.322 256.108 410.322 256.099C410.322 256.09 410.322 256.08 410.322 256.071C410.322 256.062 410.322 256.053 410.322 256.044C410.322 256.034 410.322 256.025 410.322 256.016C410.322 256.007 410.322 255.998 410.322 255.988C410.322 255.979 410.322 255.97 410.322 255.961C410.322 255.951 410.322 255.942 410.322 255.933C410.322 255.924 410.322 255.915 410.322 255.905C410.322 255.896 410.322 255.887 410.322 255.878C410.322 255.869 410.322 255.859 410.322 255.85C410.322 255.841 410.322 255.832 410.322 255.823C410.322 255.813 410.322 255.804 410.322 255.795C410.322 255.786 410.322 255.777 410.322 255.767C410.322 255.758 410.322 255.749 410.322 255.74C410.322 255.731 410.322 255.721 410.322 255.712C410.322 255.703 410.322 255.694 410.322 255.685C410.322 255.675 410.322 255.666 410.322 255.657C410.322 255.648 410.322 255.639 410.322 255.629C410.322 255.62 410.322 255.611 410.322 255.602C410.322 255.593 410.322 255.583 410.322 255.574C410.322 255.565 410.322 255.556 410.322 255.547C410.322 255.537 410.322 255.528 410.322 255.519C410.322 255.51 410.322 255.501 410.322 255.491C410.322 255.482 410.322 255.473 410.322 255.464C410.322 255.455 410.322 255.445 410.322 255.436C410.322 255.427 410.322 255.418 410.322 255.409C410.322 255.399 410.322 255.39 410.322 255.381C410.322 255.372 410.322 255.363 410.322 255.353C410.322 255.344 410.322 255.335 410.322 255.326C410.322 255.317 410.322 255.307 410.322 255.298C410.322 255.289 410.322 255.28 410.322 255.271C410.322 255.262 410.322 255.252 410.322 255.243C410.322 255.234 410.322 255.225 410.322 255.216C410.322 255.206 410.322 255.197 410.322 255.188C410.322 255.179 410.322 255.17 410.322 255.16C410.322 255.151 410.322 255.142 410.322 255.133C410.322 255.124 410.322 255.115 410.322 255.105C410.322 255.096 410.322 255.087 410.322 255.078C410.322 255.069 410.322 255.059 410.322 255.05C410.322 255.041 410.322 255.032 410.322 255.023C410.322 255.014 410.322 255.004 410.322 254.995C410.322 254.986 410.322 254.977 410.322 254.968C410.322 254.958 410.322 254.949 410.322 254.94C410.322 254.931 410.322 254.922 410.322 254.913C410.322 254.903 410.322 254.894 410.322 254.885C410.322 254.876 410.322 254.867 410.322 254.857C410.322 254.848 410.322 254.839 410.322 254.83C410.322 254.821 410.322 254.812 410.322 254.802C410.322 254.793 410.322 254.784 410.322 254.775C410.322 254.766 410.322 254.757 410.322 254.747C410.322 254.738 410.322 254.729 410.322 254.72C410.322 254.711 410.322 254.701 410.322 254.692C410.322 254.683 410.322 254.674 410.322 254.665C410.322 254.656 410.322 254.646 410.322 254.637C410.322 254.628 410.322 254.619 410.322 254.61C410.322 254.601 410.322 254.591 410.322 254.582C410.322 254.573 410.322 254.564 410.322 254.555C410.322 254.546 410.322 254.536 410.322 254.527C410.322 254.518 410.322 254.509 410.322 254.5C410.322 254.491 410.322 254.481 410.322 254.472C410.322 254.463 410.322 254.454 410.322 254.445C410.322 254.436 410.322 254.426 410.322 254.417C410.322 254.408 410.322 254.399 410.322 254.39C410.322 254.381 410.322 254.371 410.322 254.362C410.322 254.353 410.322 254.344 410.322 254.335C410.322 254.326 410.322 254.316 410.322 254.307C410.322 254.298 410.322 254.289 410.322 254.28C410.322 254.271 410.322 254.261 410.322 254.252C410.322 254.243 410.322 254.234 410.322 254.225C410.322 254.216 410.322 254.206 410.322 254.197C410.322 254.188 410.322 254.179 410.322 254.17C410.322 254.161 410.322 254.152 410.322 254.142C410.322 254.133 410.322 254.124 410.322 254.115C410.322 254.106 410.322 254.097 410.322 254.087C410.322 254.078 410.322 254.069 410.322 254.06C410.322 254.051 410.322 254.042 410.322 254.033C410.322 254.023 410.322 254.014 410.322 254.005C410.322 253.996 410.322 253.987 410.322 253.978C410.322 253.968 410.322 253.959 410.322 253.95C410.322 253.941 410.322 253.932 410.322 253.923C410.322 253.914 410.322 253.904 410.322 253.895C410.322 253.886 410.322 253.877 410.322 253.868C410.322 253.859 410.322 253.849 410.322 253.84C410.322 253.831 410.322 253.822 410.322 253.813C410.322 253.804 410.322 253.795 410.322 253.785C410.322 253.776 410.322 253.767 410.322 253.758C410.322 253.749 410.322 253.74 410.322 253.731C410.322 253.721 410.322 253.712 410.322 253.703C410.322 253.694 410.322 253.685 410.322 253.676C410.322 253.667 410.322 253.657 410.322 253.648C410.322 253.639 410.322 253.63 410.322 253.621C410.322 253.612 410.322 253.603 410.322 253.593C410.322 253.584 410.322 253.575 410.322 253.566C410.322 253.557 410.322 253.548 410.322 253.539C410.322 253.529 410.322 253.52 410.322 253.511C410.322 253.502 410.322 253.493 410.322 253.484C410.322 253.475 410.322 253.465 410.322 253.456C410.322 253.447 410.322 253.438 410.322 253.429C410.322 253.42 410.322 253.411 410.322 253.402C410.322 253.392 410.322 253.383 410.322 253.374C410.322 253.365 410.322 253.356 410.322 253.347C410.322 253.338 410.322 253.328 410.322 253.319C410.322 253.31 410.322 253.301 410.322 253.292C410.322 253.283 410.322 253.274 410.322 253.264C410.322 253.255 410.322 253.246 410.322 253.237C410.322 253.228 410.322 253.219 410.322 253.21C410.322 253.201 410.322 253.191 410.322 253.182C410.322 253.173 410.322 253.164 410.322 253.155C410.322 253.146 410.322 253.137 410.322 253.128C410.322 253.118 410.322 253.109 410.322 253.1C410.322 253.091 410.322 253.082 410.322 253.073C410.322 253.064 410.322 253.055 410.322 253.045C410.322 253.036 410.322 253.027 410.322 253.018C410.322 253.009 410.322 253 410.322 252.991C410.322 252.982 410.322 252.972 410.322 252.963C410.322 252.954 410.322 252.945 410.322 252.936C410.322 252.927 410.322 252.918 410.322 252.909C410.322 252.899 410.322 252.89 410.322 252.881C410.322 252.872 410.322 252.863 410.322 252.854C410.322 252.845 410.322 252.836 410.322 252.826C410.322 252.817 410.322 252.808 410.322 252.799C410.322 252.79 410.322 252.781 410.322 252.772C410.322 252.763 410.322 252.754 410.322 252.744C410.322 252.735 410.322 252.726 410.322 252.717C410.322 252.708 410.322 252.699 410.322 252.69C410.322 252.681 410.322 252.671 410.322 252.662C410.322 252.653 410.322 252.644 410.322 252.635C410.322 252.626 410.322 252.617 410.322 252.608C410.322 252.599 410.322 252.589 410.322 252.58C410.322 252.571 410.322 252.562 410.322 252.553C410.322 252.544 410.322 252.535 410.322 252.526C410.322 252.517 410.322 252.507 410.322 252.498C410.322 252.489 410.322 252.48 410.322 252.471C410.322 252.462 410.322 252.453 410.322 252.444C410.322 252.435 410.322 252.425 410.322 252.416C410.322 252.407 410.322 252.398 410.322 252.389C410.322 252.38 410.322 252.371 410.322 252.362C410.322 252.353 410.322 252.344 410.322 252.334C410.322 252.325 410.322 252.316 410.322 252.307C410.322 252.298 410.322 252.289 410.322 252.28C410.322 252.271 410.322 252.262 410.322 252.252C410.322 252.243 410.322 252.234 410.322 252.225C410.322 252.216 410.322 252.207 410.322 252.198C410.322 252.189 410.322 252.18 410.322 252.171C410.322 252.161 410.322 252.152 410.322 252.143C410.322 252.134 410.322 252.125 410.322 252.116C410.322 252.107 410.322 252.098 410.322 252.089C410.322 252.08 410.322 252.07 410.322 252.061C410.322 252.052 410.322 252.043 410.322 252.034C410.322 252.025 410.322 252.016 410.322 252.007C410.322 251.998 410.322 251.989 410.322 251.98C410.322 251.97 410.322 251.961 410.322 251.952C410.322 251.943 410.322 251.934 410.322 251.925C410.322 251.916 410.322 251.907 410.322 251.898C410.322 251.889 410.322 251.88 410.322 251.87C410.322 251.861 410.322 251.852 410.322 251.843C410.322 251.834 410.322 251.825 410.322 251.816C410.322 251.807 410.322 251.798 410.322 251.789C410.322 251.78 410.322 251.77 410.322 251.761C410.322 251.752 410.322 251.743 410.322 251.734C410.322 251.725 410.322 251.716 410.322 251.707C410.322 251.698 410.322 251.689 410.322 251.68C410.322 251.67 410.322 251.661 410.322 251.652C410.322 251.643 410.322 251.634 410.322 251.625C410.322 251.616 410.322 251.607 410.322 251.598C410.322 251.589 410.322 251.58 410.322 251.571C410.322 251.561 410.322 251.552 410.322 251.543C410.322 251.534 410.322 251.525 410.322 251.516C410.322 251.507 410.322 251.498 410.322 251.489C410.322 251.48 410.322 251.471 410.322 251.462C410.322 251.452 410.322 251.443 410.322 251.434C410.322 251.425 410.322 251.416 410.322 251.407C410.322 251.398 410.322 251.389 410.322 251.38C410.322 251.371 410.322 251.362 410.322 251.353C410.322 251.344 410.322 251.334 410.322 251.325C410.322 251.316 410.322 251.307 410.322 251.298C410.322 251.289 410.322 251.28 410.322 251.271C410.322 251.262 410.322 251.253 410.322 251.244C410.322 251.235 410.322 251.226 410.322 251.217C410.322 251.207 410.322 251.198 410.322 251.189C410.322 251.18 410.322 251.171 410.322 251.162C410.322 251.153 410.322 251.144 410.322 251.135C410.322 251.126 410.322 251.117 410.322 251.108C410.322 251.099 410.322 251.09 410.322 251.08C410.322 251.071 410.322 251.062 410.322 251.053C410.322 251.044 410.322 251.035 410.322 251.026C410.322 251.017 410.322 251.008 410.322 250.999C410.322 250.99 410.322 250.981 410.322 250.972C410.322 250.963 410.322 250.954 410.322 250.944C410.322 250.935 410.322 250.926 410.322 250.917C410.322 250.908 410.322 250.899 410.322 250.89C410.322 250.881 410.322 250.872 410.322 250.863C410.322 250.854 410.322 250.845 410.322 250.836C410.322 250.827 410.322 250.818 410.322 250.809C410.322 250.799 410.322 250.79 410.322 250.781C410.322 250.772 410.322 250.763 410.322 250.754C410.322 250.745 410.322 250.736 410.322 250.727C410.322 250.718 410.322 250.709 410.322 250.7C410.322 250.691 410.322 250.682 410.322 250.673C410.322 250.664 410.322 250.655 410.322 250.645C410.322 250.636 410.322 250.627 410.322 250.618C410.322 250.609 410.322 250.6 410.322 250.591C410.322 250.582 410.322 250.573 410.322 250.564C410.322 250.555 410.322 250.546 410.322 250.537C410.322 250.528 410.322 250.519 410.322 250.51C410.322 250.501 410.322 250.492 410.322 250.483C410.322 250.473 410.322 250.464 410.322 250.455C410.322 250.446 410.322 250.437 410.322 250.428C410.322 250.419 410.322 250.41 410.322 250.401C410.322 250.392 410.322 250.383 410.322 250.374C410.322 250.365 410.322 250.356 410.322 250.347C410.322 250.338 410.322 250.329 410.322 250.32C410.322 250.311 410.322 250.302 410.322 250.293C410.322 250.283 410.322 250.274 410.322 250.265C410.322 250.256 410.322 250.247 410.322 250.238C410.322 250.229 410.322 250.22 410.322 250.211C410.322 250.202 410.322 250.193 410.322 250.184C410.322 250.175 410.322 250.166 410.322 250.157C410.322 250.148 410.322 250.139 410.322 250.13C410.322 250.121 410.322 250.112 410.322 250.103C410.322 250.094 410.322 250.085 410.322 250.076C410.322 250.066 410.322 250.057 410.322 250.048C410.322 250.039 410.322 250.03 410.322 250.021C410.322 250.012 410.322 250.003 410.322 249.994C410.322 249.985 410.322 249.976 410.322 249.967C410.322 249.958 410.322 249.949 410.322 249.94C410.322 249.931 410.322 249.922 410.322 249.913C410.322 249.904 410.322 249.895 410.322 249.886C410.322 249.877 410.322 249.868 410.322 249.859C410.322 249.85 410.322 249.841 410.322 249.832C410.322 249.823 410.322 249.813 410.322 249.804C410.322 249.795 410.322 249.786 410.322 249.777C410.322 249.768 410.322 249.759 410.322 249.75C410.322 249.741 410.322 249.732 410.322 249.723C410.322 249.714 410.322 249.705 410.322 249.696C410.322 249.687 410.322 249.678 410.322 249.669C410.322 249.66 410.322 249.651 410.322 249.642C410.322 249.633 410.322 249.624 410.322 249.615C410.322 249.606 410.322 249.597 410.322 249.588C410.322 249.579 410.322 249.57 410.322 249.561C410.322 249.552 410.322 249.543 410.322 249.534C410.322 249.525 410.322 249.516 410.322 249.507C410.322 249.498 410.322 249.489 410.322 249.479C410.322 249.47 410.322 249.461 410.322 249.452C410.322 249.443 410.322 249.434 410.322 249.425C410.322 249.416 410.322 249.407 410.322 249.398C410.322 249.389 410.322 249.38 410.322 249.371C410.322 249.362 410.322 249.353 410.322 249.344C410.322 249.335 410.322 249.326 410.322 249.317C410.322 249.308 410.322 249.299 410.322 249.29C410.322 249.281 410.322 249.272 410.322 249.263C410.322 249.254 410.322 249.245 410.322 249.236C410.322 249.227 410.322 249.218 410.322 249.209C410.322 249.2 410.322 249.191 410.322 249.182C410.322 249.173 410.322 249.164 410.322 249.155C410.322 249.146 410.322 249.137 410.322 249.128C410.322 249.119 410.322 249.11 410.322 249.101C410.322 249.092 410.322 249.083 410.322 249.074C410.322 249.065 410.322 249.056 410.322 249.047C410.322 249.038 410.322 249.029 410.322 249.02C410.322 249.011 410.322 249.002 410.322 248.993C410.322 248.984 410.322 248.975 410.322 248.966C410.322 248.957 410.322 248.948 410.322 248.939C410.322 248.93 410.322 248.921 410.322 248.912C410.322 248.903 410.322 248.894 410.322 248.885C410.322 248.876 410.322 248.867 410.322 248.858C410.322 248.849 410.322 248.84 410.322 248.831C410.322 248.822 410.322 248.813 410.322 248.804C410.322 248.795 410.322 248.786 410.322 248.777C410.322 248.768 410.322 248.759 410.322 248.75C410.322 248.741 410.322 248.732 410.322 248.723C410.322 248.714 410.322 248.705 410.322 248.696C410.322 248.687 410.322 248.678 410.322 248.669C410.322 248.66 410.322 248.651 410.322 248.642C410.322 248.633 410.322 248.624 410.322 248.615C410.322 248.606 410.322 248.597 410.322 248.588C410.322 248.579 410.322 248.57 410.322 248.561C410.322 248.552 410.322 248.543 410.322 248.534C410.322 248.525 410.322 248.516 410.322 248.507C410.322 248.498 410.322 248.489 410.322 248.48C410.322 248.471 410.322 248.462 410.322 248.453C410.322 248.444 410.322 248.435 410.322 248.426C410.322 248.417 410.322 248.408 410.322 248.399C410.322 248.39 410.322 248.381 410.322 248.372C410.322 248.363 410.322 248.354 410.322 248.345C410.322 248.336 410.322 248.327 410.322 248.318C410.322 248.309 410.322 248.3 410.322 248.291C410.322 248.282 410.322 248.273 410.322 248.264C410.322 248.255 410.322 248.246 410.322 248.237C410.322 248.228 410.322 248.219 410.322 248.21C410.322 248.201 410.322 248.192 410.322 248.183C410.322 248.174 410.322 248.165 410.322 248.156C410.322 248.147 410.322 248.138 410.322 248.129C410.322 248.12 410.322 248.111 410.322 248.102C410.322 248.093 410.322 248.084 410.322 248.075C410.322 248.066 410.322 248.057 410.322 248.048C410.322 248.039 410.322 248.03 410.322 248.021C410.322 248.012 410.322 248.004 410.322 247.995C410.322 247.986 410.322 247.977 410.322 247.968C410.322 247.959 410.322 247.95 410.322 247.941C410.322 247.932 410.322 247.923 410.322 247.914C410.322 247.905 410.322 247.896 410.322 247.887C410.322 247.878 410.322 247.869 410.322 247.86C410.322 247.851 410.322 247.842 410.322 247.833C410.322 247.824 410.322 247.815 410.322 247.806C410.322 247.797 410.322 247.788 410.322 247.779C410.322 247.77 410.322 247.761 410.322 247.752C410.322 247.743 410.322 247.734 410.322 247.725C410.322 247.716 410.322 247.707 410.322 247.698C410.322 247.689 410.322 247.68 410.322 247.671C410.322 247.663 410.322 247.654 410.322 247.645C410.322 247.636 410.322 247.627 410.322 247.618C410.322 247.609 410.322 247.6 410.322 247.591C410.322 247.582 410.322 247.573 410.322 247.564C410.322 247.555 410.322 247.546 410.322 247.537C410.322 247.528 410.322 247.519 410.322 247.51C410.322 247.501 410.322 247.492 410.322 247.483C410.322 247.474 410.322 247.465 410.322 247.456C410.322 247.447 410.322 247.438 410.322 247.429C410.322 247.42 410.322 247.412 410.322 247.403C410.322 247.394 410.322 247.385 410.322 247.376C410.322 247.367 410.322 247.358 410.322 247.349C410.322 247.34 410.322 247.331 410.322 247.322C410.322 247.313 410.322 247.304 410.322 247.295C410.322 247.286 410.322 247.277 410.322 247.268C410.322 247.259 410.322 247.25 410.322 247.241C410.322 247.232 410.322 247.223 410.322 247.214C410.322 247.205 410.322 247.197 410.322 247.188C410.322 247.179 410.322 247.17 410.322 247.161C410.322 247.152 410.322 247.143 410.322 247.134C410.322 247.125 410.322 247.116 410.322 247.107C410.322 247.098 410.322 247.089 410.322 247.08C410.322 247.071 410.322 247.062 410.322 247.053C410.322 247.044 410.322 247.035 410.322 247.026C410.322 247.018 410.322 247.009 410.322 247C410.322 246.991 410.322 246.982 410.322 246.973C410.322 246.964 410.322 246.955 410.322 246.946C410.322 246.937 410.322 246.928 410.322 246.919C410.322 246.91 410.322 246.901 410.322 246.892C410.322 246.883 410.322 246.874 410.322 246.865C410.322 246.856 410.322 246.848 410.322 246.839C410.322 246.83 410.322 246.821 410.322 246.812C410.322 246.803 410.322 246.794 410.322 246.785C410.322 246.776 410.322 246.767 410.322 246.758C410.322 246.749 410.322 246.74 410.322 246.731C410.322 246.722 410.322 246.713 410.322 246.704C410.322 246.695 410.322 246.687 410.322 246.678C410.322 246.669 410.322 246.66 410.322 246.651C410.322 246.642 410.322 246.633 410.322 246.624H409.322C409.322 246.633 409.322 246.642 409.322 246.651C409.322 246.66 409.322 246.669 409.322 246.678C409.322 246.687 409.322 246.695 409.322 246.704C409.322 246.713 409.322 246.722 409.322 246.731C409.322 246.74 409.322 246.749 409.322 246.758C409.322 246.767 409.322 246.776 409.322 246.785C409.322 246.794 409.322 246.803 409.322 246.812C409.322 246.821 409.322 246.83 409.322 246.839C409.322 246.848 409.322 246.856 409.322 246.865C409.322 246.874 409.322 246.883 409.322 246.892C409.322 246.901 409.322 246.91 409.322 246.919C409.322 246.928 409.322 246.937 409.322 246.946C409.322 246.955 409.322 246.964 409.322 246.973C409.322 246.982 409.322 246.991 409.322 247C409.322 247.009 409.322 247.018 409.322 247.026C409.322 247.035 409.322 247.044 409.322 247.053C409.322 247.062 409.322 247.071 409.322 247.08C409.322 247.089 409.322 247.098 409.322 247.107C409.322 247.116 409.322 247.125 409.322 247.134C409.322 247.143 409.322 247.152 409.322 247.161C409.322 247.17 409.322 247.179 409.322 247.188C409.322 247.197 409.322 247.205 409.322 247.214C409.322 247.223 409.322 247.232 409.322 247.241C409.322 247.25 409.322 247.259 409.322 247.268C409.322 247.277 409.322 247.286 409.322 247.295C409.322 247.304 409.322 247.313 409.322 247.322C409.322 247.331 409.322 247.34 409.322 247.349C409.322 247.358 409.322 247.367 409.322 247.376C409.322 247.385 409.322 247.394 409.322 247.403C409.322 247.412 409.322 247.42 409.322 247.429C409.322 247.438 409.322 247.447 409.322 247.456C409.322 247.465 409.322 247.474 409.322 247.483C409.322 247.492 409.322 247.501 409.322 247.51C409.322 247.519 409.322 247.528 409.322 247.537C409.322 247.546 409.322 247.555 409.322 247.564C409.322 247.573 409.322 247.582 409.322 247.591C409.322 247.6 409.322 247.609 409.322 247.618C409.322 247.627 409.322 247.636 409.322 247.645C409.322 247.654 409.322 247.663 409.322 247.671C409.322 247.68 409.322 247.689 409.322 247.698C409.322 247.707 409.322 247.716 409.322 247.725C409.322 247.734 409.322 247.743 409.322 247.752C409.322 247.761 409.322 247.77 409.322 247.779C409.322 247.788 409.322 247.797 409.322 247.806C409.322 247.815 409.322 247.824 409.322 247.833C409.322 247.842 409.322 247.851 409.322 247.86C409.322 247.869 409.322 247.878 409.322 247.887C409.322 247.896 409.322 247.905 409.322 247.914C409.322 247.923 409.322 247.932 409.322 247.941C409.322 247.95 409.322 247.959 409.322 247.968C409.322 247.977 409.322 247.986 409.322 247.995C409.322 248.004 409.322 248.012 409.322 248.021C409.322 248.03 409.322 248.039 409.322 248.048C409.322 248.057 409.322 248.066 409.322 248.075C409.322 248.084 409.322 248.093 409.322 248.102C409.322 248.111 409.322 248.12 409.322 248.129C409.322 248.138 409.322 248.147 409.322 248.156C409.322 248.165 409.322 248.174 409.322 248.183C409.322 248.192 409.322 248.201 409.322 248.21C409.322 248.219 409.322 248.228 409.322 248.237C409.322 248.246 409.322 248.255 409.322 248.264C409.322 248.273 409.322 248.282 409.322 248.291C409.322 248.3 409.322 248.309 409.322 248.318C409.322 248.327 409.322 248.336 409.322 248.345C409.322 248.354 409.322 248.363 409.322 248.372C409.322 248.381 409.322 248.39 409.322 248.399C409.322 248.408 409.322 248.417 409.322 248.426C409.322 248.435 409.322 248.444 409.322 248.453C409.322 248.462 409.322 248.471 409.322 248.48C409.322 248.489 409.322 248.498 409.322 248.507C409.322 248.516 409.322 248.525 409.322 248.534C409.322 248.543 409.322 248.552 409.322 248.561C409.322 248.57 409.322 248.579 409.322 248.588C409.322 248.597 409.322 248.606 409.322 248.615C409.322 248.624 409.322 248.633 409.322 248.642C409.322 248.651 409.322 248.66 409.322 248.669C409.322 248.678 409.322 248.687 409.322 248.696C409.322 248.705 409.322 248.714 409.322 248.723C409.322 248.732 409.322 248.741 409.322 248.75C409.322 248.759 409.322 248.768 409.322 248.777C409.322 248.786 409.322 248.795 409.322 248.804C409.322 248.813 409.322 248.822 409.322 248.831C409.322 248.84 409.322 248.849 409.322 248.858C409.322 248.867 409.322 248.876 409.322 248.885C409.322 248.894 409.322 248.903 409.322 248.912C409.322 248.921 409.322 248.93 409.322 248.939C409.322 248.948 409.322 248.957 409.322 248.966C409.322 248.975 409.322 248.984 409.322 248.993C409.322 249.002 409.322 249.011 409.322 249.02C409.322 249.029 409.322 249.038 409.322 249.047C409.322 249.056 409.322 249.065 409.322 249.074C409.322 249.083 409.322 249.092 409.322 249.101C409.322 249.11 409.322 249.119 409.322 249.128C409.322 249.137 409.322 249.146 409.322 249.155C409.322 249.164 409.322 249.173 409.322 249.182C409.322 249.191 409.322 249.2 409.322 249.209C409.322 249.218 409.322 249.227 409.322 249.236C409.322 249.245 409.322 249.254 409.322 249.263C409.322 249.272 409.322 249.281 409.322 249.29C409.322 249.299 409.322 249.308 409.322 249.317C409.322 249.326 409.322 249.335 409.322 249.344C409.322 249.353 409.322 249.362 409.322 249.371C409.322 249.38 409.322 249.389 409.322 249.398C409.322 249.407 409.322 249.416 409.322 249.425C409.322 249.434 409.322 249.443 409.322 249.452C409.322 249.461 409.322 249.47 409.322 249.479C409.322 249.489 409.322 249.498 409.322 249.507C409.322 249.516 409.322 249.525 409.322 249.534C409.322 249.543 409.322 249.552 409.322 249.561C409.322 249.57 409.322 249.579 409.322 249.588C409.322 249.597 409.322 249.606 409.322 249.615C409.322 249.624 409.322 249.633 409.322 249.642C409.322 249.651 409.322 249.66 409.322 249.669C409.322 249.678 409.322 249.687 409.322 249.696C409.322 249.705 409.322 249.714 409.322 249.723C409.322 249.732 409.322 249.741 409.322 249.75C409.322 249.759 409.322 249.768 409.322 249.777C409.322 249.786 409.322 249.795 409.322 249.804C409.322 249.813 409.322 249.823 409.322 249.832C409.322 249.841 409.322 249.85 409.322 249.859C409.322 249.868 409.322 249.877 409.322 249.886C409.322 249.895 409.322 249.904 409.322 249.913C409.322 249.922 409.322 249.931 409.322 249.94C409.322 249.949 409.322 249.958 409.322 249.967C409.322 249.976 409.322 249.985 409.322 249.994C409.322 250.003 409.322 250.012 409.322 250.021C409.322 250.03 409.322 250.039 409.322 250.048C409.322 250.057 409.322 250.066 409.322 250.076C409.322 250.085 409.322 250.094 409.322 250.103C409.322 250.112 409.322 250.121 409.322 250.13C409.322 250.139 409.322 250.148 409.322 250.157C409.322 250.166 409.322 250.175 409.322 250.184C409.322 250.193 409.322 250.202 409.322 250.211C409.322 250.22 409.322 250.229 409.322 250.238C409.322 250.247 409.322 250.256 409.322 250.265C409.322 250.274 409.322 250.283 409.322 250.293C409.322 250.302 409.322 250.311 409.322 250.32C409.322 250.329 409.322 250.338 409.322 250.347C409.322 250.356 409.322 250.365 409.322 250.374C409.322 250.383 409.322 250.392 409.322 250.401C409.322 250.41 409.322 250.419 409.322 250.428C409.322 250.437 409.322 250.446 409.322 250.455C409.322 250.464 409.322 250.473 409.322 250.483C409.322 250.492 409.322 250.501 409.322 250.51C409.322 250.519 409.322 250.528 409.322 250.537C409.322 250.546 409.322 250.555 409.322 250.564C409.322 250.573 409.322 250.582 409.322 250.591C409.322 250.6 409.322 250.609 409.322 250.618C409.322 250.627 409.322 250.636 409.322 250.645C409.322 250.655 409.322 250.664 409.322 250.673C409.322 250.682 409.322 250.691 409.322 250.7C409.322 250.709 409.322 250.718 409.322 250.727C409.322 250.736 409.322 250.745 409.322 250.754C409.322 250.763 409.322 250.772 409.322 250.781C409.322 250.79 409.322 250.799 409.322 250.809C409.322 250.818 409.322 250.827 409.322 250.836C409.322 250.845 409.322 250.854 409.322 250.863C409.322 250.872 409.322 250.881 409.322 250.89C409.322 250.899 409.322 250.908 409.322 250.917C409.322 250.926 409.322 250.935 409.322 250.944C409.322 250.954 409.322 250.963 409.322 250.972C409.322 250.981 409.322 250.99 409.322 250.999C409.322 251.008 409.322 251.017 409.322 251.026C409.322 251.035 409.322 251.044 409.322 251.053C409.322 251.062 409.322 251.071 409.322 251.08C409.322 251.09 409.322 251.099 409.322 251.108C409.322 251.117 409.322 251.126 409.322 251.135C409.322 251.144 409.322 251.153 409.322 251.162C409.322 251.171 409.322 251.18 409.322 251.189C409.322 251.198 409.322 251.207 409.322 251.217C409.322 251.226 409.322 251.235 409.322 251.244C409.322 251.253 409.322 251.262 409.322 251.271C409.322 251.28 409.322 251.289 409.322 251.298C409.322 251.307 409.322 251.316 409.322 251.325C409.322 251.334 409.322 251.344 409.322 251.353C409.322 251.362 409.322 251.371 409.322 251.38C409.322 251.389 409.322 251.398 409.322 251.407C409.322 251.416 409.322 251.425 409.322 251.434C409.322 251.443 409.322 251.452 409.322 251.462C409.322 251.471 409.322 251.48 409.322 251.489C409.322 251.498 409.322 251.507 409.322 251.516C409.322 251.525 409.322 251.534 409.322 251.543C409.322 251.552 409.322 251.561 409.322 251.571C409.322 251.58 409.322 251.589 409.322 251.598C409.322 251.607 409.322 251.616 409.322 251.625C409.322 251.634 409.322 251.643 409.322 251.652C409.322 251.661 409.322 251.67 409.322 251.68C409.322 251.689 409.322 251.698 409.322 251.707C409.322 251.716 409.322 251.725 409.322 251.734C409.322 251.743 409.322 251.752 409.322 251.761C409.322 251.77 409.322 251.78 409.322 251.789C409.322 251.798 409.322 251.807 409.322 251.816C409.322 251.825 409.322 251.834 409.322 251.843C409.322 251.852 409.322 251.861 409.322 251.87C409.322 251.88 409.322 251.889 409.322 251.898C409.322 251.907 409.322 251.916 409.322 251.925C409.322 251.934 409.322 251.943 409.322 251.952C409.322 251.961 409.322 251.97 409.322 251.98C409.322 251.989 409.322 251.998 409.322 252.007C409.322 252.016 409.322 252.025 409.322 252.034C409.322 252.043 409.322 252.052 409.322 252.061C409.322 252.07 409.322 252.08 409.322 252.089C409.322 252.098 409.322 252.107 409.322 252.116C409.322 252.125 409.322 252.134 409.322 252.143C409.322 252.152 409.322 252.161 409.322 252.171C409.322 252.18 409.322 252.189 409.322 252.198C409.322 252.207 409.322 252.216 409.322 252.225C409.322 252.234 409.322 252.243 409.322 252.252C409.322 252.262 409.322 252.271 409.322 252.28C409.322 252.289 409.322 252.298 409.322 252.307C409.322 252.316 409.322 252.325 409.322 252.334C409.322 252.344 409.322 252.353 409.322 252.362C409.322 252.371 409.322 252.38 409.322 252.389C409.322 252.398 409.322 252.407 409.322 252.416C409.322 252.425 409.322 252.435 409.322 252.444C409.322 252.453 409.322 252.462 409.322 252.471C409.322 252.48 409.322 252.489 409.322 252.498C409.322 252.507 409.322 252.517 409.322 252.526C409.322 252.535 409.322 252.544 409.322 252.553C409.322 252.562 409.322 252.571 409.322 252.58C409.322 252.589 409.322 252.599 409.322 252.608C409.322 252.617 409.322 252.626 409.322 252.635C409.322 252.644 409.322 252.653 409.322 252.662C409.322 252.671 409.322 252.681 409.322 252.69C409.322 252.699 409.322 252.708 409.322 252.717C409.322 252.726 409.322 252.735 409.322 252.744C409.322 252.754 409.322 252.763 409.322 252.772C409.322 252.781 409.322 252.79 409.322 252.799C409.322 252.808 409.322 252.817 409.322 252.826C409.322 252.836 409.322 252.845 409.322 252.854C409.322 252.863 409.322 252.872 409.322 252.881C409.322 252.89 409.322 252.899 409.322 252.909C409.322 252.918 409.322 252.927 409.322 252.936C409.322 252.945 409.322 252.954 409.322 252.963C409.322 252.972 409.322 252.982 409.322 252.991C409.322 253 409.322 253.009 409.322 253.018C409.322 253.027 409.322 253.036 409.322 253.045C409.322 253.055 409.322 253.064 409.322 253.073C409.322 253.082 409.322 253.091 409.322 253.1C409.322 253.109 409.322 253.118 409.322 253.128C409.322 253.137 409.322 253.146 409.322 253.155C409.322 253.164 409.322 253.173 409.322 253.182C409.322 253.191 409.322 253.201 409.322 253.21C409.322 253.219 409.322 253.228 409.322 253.237C409.322 253.246 409.322 253.255 409.322 253.264C409.322 253.274 409.322 253.283 409.322 253.292C409.322 253.301 409.322 253.31 409.322 253.319C409.322 253.328 409.322 253.338 409.322 253.347C409.322 253.356 409.322 253.365 409.322 253.374C409.322 253.383 409.322 253.392 409.322 253.402C409.322 253.411 409.322 253.42 409.322 253.429C409.322 253.438 409.322 253.447 409.322 253.456C409.322 253.465 409.322 253.475 409.322 253.484C409.322 253.493 409.322 253.502 409.322 253.511C409.322 253.52 409.322 253.529 409.322 253.539C409.322 253.548 409.322 253.557 409.322 253.566C409.322 253.575 409.322 253.584 409.322 253.593C409.322 253.603 409.322 253.612 409.322 253.621C409.322 253.63 409.322 253.639 409.322 253.648C409.322 253.657 409.322 253.667 409.322 253.676C409.322 253.685 409.322 253.694 409.322 253.703C409.322 253.712 409.322 253.721 409.322 253.731C409.322 253.74 409.322 253.749 409.322 253.758C409.322 253.767 409.322 253.776 409.322 253.785C409.322 253.795 409.322 253.804 409.322 253.813C409.322 253.822 409.322 253.831 409.322 253.84C409.322 253.849 409.322 253.859 409.322 253.868C409.322 253.877 409.322 253.886 409.322 253.895C409.322 253.904 409.322 253.914 409.322 253.923C409.322 253.932 409.322 253.941 409.322 253.95C409.322 253.959 409.322 253.968 409.322 253.978C409.322 253.987 409.322 253.996 409.322 254.005C409.322 254.014 409.322 254.023 409.322 254.033C409.322 254.042 409.322 254.051 409.322 254.06C409.322 254.069 409.322 254.078 409.322 254.087C409.322 254.097 409.322 254.106 409.322 254.115C409.322 254.124 409.322 254.133 409.322 254.142C409.322 254.152 409.322 254.161 409.322 254.17C409.322 254.179 409.322 254.188 409.322 254.197C409.322 254.206 409.322 254.216 409.322 254.225C409.322 254.234 409.322 254.243 409.322 254.252C409.322 254.261 409.322 254.271 409.322 254.28C409.322 254.289 409.322 254.298 409.322 254.307C409.322 254.316 409.322 254.326 409.322 254.335C409.322 254.344 409.322 254.353 409.322 254.362C409.322 254.371 409.322 254.381 409.322 254.39C409.322 254.399 409.322 254.408 409.322 254.417C409.322 254.426 409.322 254.436 409.322 254.445C409.322 254.454 409.322 254.463 409.322 254.472C409.322 254.481 409.322 254.491 409.322 254.5C409.322 254.509 409.322 254.518 409.322 254.527C409.322 254.536 409.322 254.546 409.322 254.555C409.322 254.564 409.322 254.573 409.322 254.582C409.322 254.591 409.322 254.601 409.322 254.61C409.322 254.619 409.322 254.628 409.322 254.637C409.322 254.646 409.322 254.656 409.322 254.665C409.322 254.674 409.322 254.683 409.322 254.692C409.322 254.701 409.322 254.711 409.322 254.72C409.322 254.729 409.322 254.738 409.322 254.747C409.322 254.757 409.322 254.766 409.322 254.775C409.322 254.784 409.322 254.793 409.322 254.802C409.322 254.812 409.322 254.821 409.322 254.83C409.322 254.839 409.322 254.848 409.322 254.857C409.322 254.867 409.322 254.876 409.322 254.885C409.322 254.894 409.322 254.903 409.322 254.913C409.322 254.922 409.322 254.931 409.322 254.94C409.322 254.949 409.322 254.958 409.322 254.968C409.322 254.977 409.322 254.986 409.322 254.995C409.322 255.004 409.322 255.014 409.322 255.023C409.322 255.032 409.322 255.041 409.322 255.05C409.322 255.059 409.322 255.069 409.322 255.078C409.322 255.087 409.322 255.096 409.322 255.105C409.322 255.115 409.322 255.124 409.322 255.133C409.322 255.142 409.322 255.151 409.322 255.16C409.322 255.17 409.322 255.179 409.322 255.188C409.322 255.197 409.322 255.206 409.322 255.216C409.322 255.225 409.322 255.234 409.322 255.243C409.322 255.252 409.322 255.262 409.322 255.271C409.322 255.28 409.322 255.289 409.322 255.298C409.322 255.307 409.322 255.317 409.322 255.326C409.322 255.335 409.322 255.344 409.322 255.353C409.322 255.363 409.322 255.372 409.322 255.381C409.322 255.39 409.322 255.399 409.322 255.409C409.322 255.418 409.322 255.427 409.322 255.436C409.322 255.445 409.322 255.455 409.322 255.464C409.322 255.473 409.322 255.482 409.322 255.491C409.322 255.501 409.322 255.51 409.322 255.519C409.322 255.528 409.322 255.537 409.322 255.547C409.322 255.556 409.322 255.565 409.322 255.574C409.322 255.583 409.322 255.593 409.322 255.602C409.322 255.611 409.322 255.62 409.322 255.629C409.322 255.639 409.322 255.648 409.322 255.657C409.322 255.666 409.322 255.675 409.322 255.685C409.322 255.694 409.322 255.703 409.322 255.712C409.322 255.721 409.322 255.731 409.322 255.74C409.322 255.749 409.322 255.758 409.322 255.767C409.322 255.777 409.322 255.786 409.322 255.795C409.322 255.804 409.322 255.813 409.322 255.823C409.322 255.832 409.322 255.841 409.322 255.85C409.322 255.859 409.322 255.869 409.322 255.878C409.322 255.887 409.322 255.896 409.322 255.905C409.322 255.915 409.322 255.924 409.322 255.933C409.322 255.942 409.322 255.951 409.322 255.961C409.322 255.97 409.322 255.979 409.322 255.988C409.322 255.998 409.322 256.007 409.322 256.016C409.322 256.025 409.322 256.034 409.322 256.044C409.322 256.053 409.322 256.062 409.322 256.071C409.322 256.08 409.322 256.09 409.322 256.099C409.322 256.108 409.322 256.117 409.322 256.127C409.322 256.136 409.322 256.145 409.322 256.154C409.322 256.163 409.322 256.173 409.322 256.182C409.322 256.191 409.322 256.2 409.322 256.209C409.322 256.219 409.322 256.228 409.322 256.237C409.322 256.246 409.322 256.256 409.322 256.265C409.322 256.274 409.322 256.283 409.322 256.292C409.322 256.302 409.322 256.311 409.322 256.32C409.322 256.329 409.322 256.339 409.322 256.348C409.322 256.357 409.322 256.366 409.322 256.375C409.322 256.385 409.322 256.394 409.322 256.403C409.322 256.412 409.322 256.422 409.322 256.431C409.322 256.44 409.322 256.449 409.322 256.458C409.322 256.468 409.322 256.477 409.322 256.486C409.322 256.495 409.322 256.505 409.322 256.514C409.322 256.523 409.322 256.532 409.322 256.541C409.322 256.551 409.322 256.56 409.322 256.569C409.322 256.578 409.322 256.588 409.322 256.597C409.322 256.606 409.322 256.615 409.322 256.624C409.322 256.634 409.322 256.643 409.322 256.652C409.322 256.661 409.322 256.671 409.322 256.68C409.322 256.689 409.322 256.698 409.322 256.708C409.322 256.717 409.322 256.726 409.322 256.735C409.322 256.744 409.322 256.754 409.322 256.763C409.322 256.772 409.322 256.781 409.322 256.791C409.322 256.8 409.322 256.809 409.322 256.818C409.322 256.828 409.322 256.837 409.322 256.846C409.322 256.855 409.322 256.865 409.322 256.874C409.322 256.883 409.322 256.892 409.322 256.901C409.322 256.911 409.322 256.92 409.322 256.929C409.322 256.938 409.322 256.948 409.322 256.957C409.322 256.966 409.322 256.975 409.322 256.985C409.322 256.994 409.322 257.003 409.322 257.012C409.322 257.022 409.322 257.031 409.322 257.04C409.322 257.049 409.322 257.059 409.322 257.068C409.322 257.077 409.322 257.086 409.322 257.095C409.322 257.105 409.322 257.114 409.322 257.123C409.322 257.132 409.322 257.142 409.322 257.151C409.322 257.16 409.322 257.169 409.322 257.179C409.322 257.188 409.322 257.197 409.322 257.206C409.322 257.216 409.322 257.225 409.322 257.234C409.322 257.243 409.322 257.253 409.322 257.262C409.322 257.271 409.322 257.28 409.322 257.29C409.322 257.299 409.322 257.308 409.322 257.317C409.322 257.327 409.322 257.336 409.322 257.345C409.322 257.354 409.322 257.364 409.322 257.373C409.322 257.382 409.322 257.391 409.322 257.401C409.322 257.41 409.322 257.419 409.322 257.428C409.322 257.438 409.322 257.447 409.322 257.456C409.322 257.465 409.322 257.475 409.322 257.484C409.322 257.493 409.322 257.502 409.322 257.512C409.322 257.521 409.322 257.53 409.322 257.539C409.322 257.549 409.322 257.558 409.322 257.567C409.322 257.576 409.322 257.586 409.322 257.595C409.322 257.604 409.322 257.613 409.322 257.623C409.322 257.632 409.322 257.641 409.322 257.65C409.322 257.66 409.322 257.669 409.322 257.678C409.322 257.688 409.322 257.697 409.322 257.706C409.322 257.715 409.322 257.725 409.322 257.734C409.322 257.743 409.322 257.752 409.322 257.762C409.322 257.771 409.322 257.78 409.322 257.789C409.322 257.799 409.322 257.808 409.322 257.817C409.322 257.826 409.322 257.836 409.322 257.845C409.322 257.854 409.322 257.864 409.322 257.873C409.322 257.882 409.322 257.891 409.322 257.901C409.322 257.91 409.322 257.919 409.322 257.928C409.322 257.938 409.322 257.947 409.322 257.956C409.322 257.965 409.322 257.975 409.322 257.984C409.322 257.993 409.322 258.003 409.322 258.012C409.322 258.021 409.322 258.03 409.322 258.04C409.322 258.049 409.322 258.058 409.322 258.067C409.322 258.077 409.322 258.086 409.322 258.095C409.322 258.104 409.322 258.114 409.322 258.123C409.322 258.132 409.322 258.142 409.322 258.151C409.322 258.16 409.322 258.169 409.322 258.179C409.322 258.188 409.322 258.197 409.322 258.206C409.322 258.216 409.322 258.225 409.322 258.234C409.322 258.244 409.322 258.253 409.322 258.262C409.322 258.271 409.322 258.281 409.322 258.29C409.322 258.299 409.322 258.308 409.322 258.318C409.322 258.327 409.322 258.336 409.322 258.346C409.322 258.355 409.322 258.364 409.322 258.373C409.322 258.383 409.322 258.392 409.322 258.401C409.322 258.411 409.322 258.42 409.322 258.429C409.322 258.438 409.322 258.448 409.322 258.457C409.322 258.466 409.322 258.476 409.322 258.485C409.322 258.494 409.322 258.503 409.322 258.513C409.322 258.522 409.322 258.531 409.322 258.54C409.322 258.55 409.322 258.559 409.322 258.568C409.322 258.578 409.322 258.587 409.322 258.596C409.322 258.605 409.322 258.615 409.322 258.624C409.322 258.633 409.322 258.643 409.322 258.652C409.322 258.661 409.322 258.67 409.322 258.68C409.322 258.689 409.322 258.698 409.322 258.708C409.322 258.717 409.322 258.726 409.322 258.736C409.322 258.745 409.322 258.754 409.322 258.763C409.322 258.773 409.322 258.782 409.322 258.791C409.322 258.801 409.322 258.81 409.322 258.819C409.322 258.828 409.322 258.838 409.322 258.847C409.322 258.856 409.322 258.866 409.322 258.875C409.322 258.884 409.322 258.893 409.322 258.903C409.322 258.912 409.322 258.921 409.322 258.931C409.322 258.94 409.322 258.949 409.322 258.959C409.322 258.968 409.322 258.977 409.322 258.986C409.322 258.996 409.322 259.005 409.322 259.014C409.322 259.024 409.322 259.033 409.322 259.042C409.322 259.051 409.322 259.061 409.322 259.07C409.322 259.079 409.322 259.089 409.322 259.098C409.322 259.107 409.322 259.117 409.322 259.126C409.322 259.135 409.322 259.144 409.322 259.154C409.322 259.163 409.322 259.172 409.322 259.182C409.322 259.191 409.322 259.2 409.322 259.21C409.322 259.219 409.322 259.228 409.322 259.238C409.322 259.247 409.322 259.256 409.322 259.265C409.322 259.275 409.322 259.284 409.322 259.293C409.322 259.303 409.322 259.312 409.322 259.321C409.322 259.331 409.322 259.34 409.322 259.349C409.322 259.358 409.322 259.368 409.322 259.377C409.322 259.386 409.322 259.396 409.322 259.405C409.322 259.414 409.322 259.424 409.322 259.433C409.322 259.442 409.322 259.452 409.322 259.461C409.322 259.47 409.322 259.479 409.322 259.489C409.322 259.498 409.322 259.507 409.322 259.517C409.322 259.526 409.322 259.535 409.322 259.545C409.322 259.554 409.322 259.563 409.322 259.573C409.322 259.582 409.322 259.591 409.322 259.601C409.322 259.61 409.322 259.619 409.322 259.628C409.322 259.638 409.322 259.647 409.322 259.656C409.322 259.666 409.322 259.675 409.322 259.684C409.322 259.694 409.322 259.703 409.322 259.712C409.322 259.722 409.322 259.731 409.322 259.74C409.322 259.75 409.322 259.759 409.322 259.768C409.322 259.778 409.322 259.787 409.322 259.796C409.322 259.805 409.322 259.815 409.322 259.824C409.322 259.833 409.322 259.843 409.322 259.852C409.322 259.861 409.322 259.871 409.322 259.88C409.322 259.889 409.322 259.899 409.322 259.908C409.322 259.917 409.322 259.927 409.322 259.936C409.322 259.945 409.322 259.955 409.322 259.964C409.322 259.973 409.322 259.983 409.322 259.992C409.322 260.001 409.322 260.011 409.322 260.02C409.322 260.029 409.322 260.039 409.322 260.048C409.322 260.057 409.322 260.067 409.322 260.076C409.322 260.085 409.322 260.095 409.322 260.104C409.322 260.113 409.322 260.122 409.322 260.132C409.322 260.141 409.322 260.15 409.322 260.16C409.322 260.169 409.322 260.178 409.322 260.188C409.322 260.197 409.322 260.206 409.322 260.216C409.322 260.225 409.322 260.234 409.322 260.244C409.322 260.253 409.322 260.262 409.322 260.272C409.322 260.281 409.322 260.29 409.322 260.3C409.322 260.309 409.322 260.318 409.322 260.328C409.322 260.337 409.322 260.346 409.322 260.356C409.322 260.365 409.322 260.374 409.322 260.384C409.322 260.393 409.322 260.402 409.322 260.412C409.322 260.421 409.322 260.43 409.322 260.44C409.322 260.449 409.322 260.458 409.322 260.468C409.322 260.477 409.322 260.487 409.322 260.496C409.322 260.505 409.322 260.515 409.322 260.524C409.322 260.533 409.322 260.543 409.322 260.552C409.322 260.561 409.322 260.571 409.322 260.58C409.322 260.589 409.322 260.599 409.322 260.608C409.322 260.617 409.322 260.627 409.322 260.636C409.322 260.645 409.322 260.655 409.322 260.664H410.322ZM410.322 246.624C410.322 241.826 410.113 236.406 409.697 230.366L408.699 230.434C409.115 236.458 409.322 241.854 409.322 246.624H410.322ZM409.698 230.39C409.281 210.152 404.482 195.134 395.207 185.438L394.485 186.13C403.514 195.57 408.283 210.296 408.698 230.41L409.698 230.39ZM395.211 185.442C385.92 175.518 370.358 170.62 348.67 170.62V171.62C370.246 171.62 385.468 176.498 394.481 186.126L395.211 185.442ZM348.67 170.62H302.806V171.62H348.67V170.62ZM302.306 171.12V336.48H303.306V171.12H302.306Z" fill="#212121"/>
</g>
<defs>
<filter id="filter0_dd_926_4" x="60.104" y="141.48" width="391.294" height="232.64" filterUnits="userSpaceOnUse" color-interpolation-filters="sRGB">
<feFlood flood-opacity="0" result="BackgroundImageFix"/>
<feColorMatrix in="SourceAlpha" type="matrix" values="0 0 0 0 0 0 0 0 0 0 0 0 0 0 0 0 0 0 127 0" result="hardAlpha"/>
<feOffset dy="4"/>
<feGaussianBlur stdDeviation="2"/>
<feComposite in2="hardAlpha" operator="out"/>
<feColorMatrix type="matrix" values="0 0 0 0 1 0 0 0 0 0.239216 0 0 0 0 0.435294 0 0 0 0.25 0"/>
<feBlend mode="normal" in2="BackgroundImageFix" result="effect1_dropShadow_926_4"/>
<feColorMatrix in="SourceAlpha" type="matrix" values="0 0 0 0 0 0 0 0 0 0 0 0 0 0 0 0 0 0 127 0" result="hardAlpha"/>
<feOffset dx="8" dy="4"/>
<feGaussianBlur stdDeviation="1.5"/>
<feComposite in2="hardAlpha" operator="out"/>
<feColorMatrix type="matrix" values="0 0 0 0 1 0 0 0 0 0.239216 0 0 0 0 0.435294 0 0 0 0.25 0"/>
<feBlend mode="normal" in2="effect1_dropShadow_926_4" result="effect2_dropShadow_926_4"/>
<feBlend mode="normal" in="SourceGraphic" in2="effect2_dropShadow_926_4" result="shape"/>
</filter>
</defs>
</svg>
